<svg width="47" height="48" viewBox="0 0 47 48" fill="none" xmlns="http://www.w3.org/2000/svg">
<path d="M41.0729 29.632H2.09688C1.71288 28.992 1.36088 28.224 1.04088 27.328C0.784875 26.368 0.656875 25.344 0.656875 24.256C0.656875 22.208 1.13688 20.736 2.09688 19.84C3.12088 18.88 4.40088 18.4 5.93688 18.4H44.9129C45.2329 18.976 45.5529 19.776 45.8729 20.8C46.1929 21.824 46.3529 22.88 46.3529 23.968C46.3529 26.016 45.8729 27.488 44.9129 28.384C43.9529 29.216 42.6729 29.632 41.0729 29.632ZM30.0329 6.976V46.72C29.4569 46.848 28.5929 47.008 27.4409 47.2C26.3529 47.392 25.2649 47.488 24.1769 47.488C21.9369 47.488 20.2089 47.104 18.9929 46.336C17.8409 45.504 17.2649 43.84 17.2649 41.344V1.696C17.8409 1.568 18.6729 1.408 19.7609 1.216C20.9129 0.959995 22.0329 0.831995 23.1209 0.831995C25.3609 0.831995 27.0569 1.248 28.2089 2.08C29.4249 2.912 30.0329 4.544 30.0329 6.976Z" fill="black"/>
</svg>
