<svg width="213" height="214" viewBox="0 0 213 214" fill="none" xmlns="http://www.w3.org/2000/svg">
<path d="M85.25 189.645V153.933C85.25 140.252 95.8197 129.481 111.459 123.342C101.645 119.672 91.0247 117.667 79.9375 117.667C59.8576 117.667 41.3084 124.246 26.3116 135.373C35.6524 161.98 57.7603 182.541 85.25 189.645ZM179.594 150.583C175.416 144.894 161.44 139 143.688 139C122.373 139 106.5 147.498 106.5 153.933V192.333C137.583 192.333 164.771 175.582 179.594 150.583ZM80.4688 101.667C93.6714 101.667 104.375 90.921 104.375 77.6666C104.375 64.4118 93.6714 53.6666 80.4688 53.6666C67.2657 53.6666 56.5625 64.4118 56.5625 77.6666C56.5625 90.921 67.2657 101.667 80.4688 101.667ZM143.688 112.333C155.424 112.333 164.938 102.782 164.938 90.9999C164.938 79.2178 155.424 69.6666 143.688 69.6666C131.951 69.6666 122.438 79.2178 122.438 90.9999C122.438 102.782 131.951 112.333 143.688 112.333ZM106.5 213.667C47.8197 213.667 0.25 165.91 0.25 107C0.25 48.0895 47.8197 0.333252 106.5 0.333252C165.18 0.333252 212.75 48.0895 212.75 107C212.75 165.91 165.18 213.667 106.5 213.667Z" fill="black"/>
</svg>
