<svg width="644" height="623" viewBox="0 0 644 623" fill="none" xmlns="http://www.w3.org/2000/svg">
<path d="M123.97 470.365C151.34 450.117 181.93 434.153 215.74 422.472C249.55 410.791 284.97 404.95 322 404.95C359.03 404.95 394.45 410.791 428.26 422.472C462.07 434.153 492.66 450.117 520.03 470.365C538.813 449.079 553.438 424.938 563.903 397.941C574.368 370.945 579.6 342.131 579.6 311.5C579.6 242.451 554.511 183.655 504.333 135.113C454.154 86.571 393.377 62.3 322 62.3C250.623 62.3 189.846 86.571 139.668 135.113C89.4892 183.655 64.4 242.451 64.4 311.5C64.4 342.131 69.6325 370.945 80.0975 397.941C90.5625 424.938 105.187 449.079 123.97 470.365ZM322 342.65C290.337 342.65 263.638 332.137 241.903 311.111C220.168 290.084 209.3 264.256 209.3 233.625C209.3 202.994 220.168 177.166 241.903 156.139C263.638 135.113 290.337 124.6 322 124.6C353.663 124.6 380.363 135.113 402.098 156.139C423.833 177.166 434.7 202.994 434.7 233.625C434.7 264.256 423.833 290.084 402.098 311.111C380.363 332.137 353.663 342.65 322 342.65ZM322 623C277.457 623 235.597 614.823 196.42 598.469C157.243 582.116 123.165 559.921 94.185 531.886C65.205 503.851 42.2625 470.884 25.3575 432.985C8.4525 395.086 0 354.591 0 311.5C0 268.409 8.4525 227.914 25.3575 190.015C42.2625 152.116 65.205 119.149 94.185 91.1137C123.165 63.0787 157.243 40.8844 196.42 24.5306C235.597 8.17687 277.457 0 322 0C366.543 0 408.403 8.17687 447.58 24.5306C486.757 40.8844 520.835 63.0787 549.815 91.1137C578.795 119.149 601.737 152.116 618.643 190.015C635.547 227.914 644 268.409 644 311.5C644 354.591 635.547 395.086 618.643 432.985C601.737 470.884 578.795 503.851 549.815 531.886C520.835 559.921 486.757 582.116 447.58 598.469C408.403 614.823 366.543 623 322 623Z" fill="#1D1B20" fill-opacity="0.4"/>
</svg>
