<svg width="188" height="205" viewBox="0 0 188 205" fill="none" xmlns="http://www.w3.org/2000/svg">
<path d="M94.0001 0C122.841 0 146.222 21.8528 146.222 48.8095V68.3333H177.556C183.324 68.3333 188 72.7039 188 78.0952V195.238C188 200.63 183.324 205 177.556 205H10.4444C4.67618 205 0 200.63 0 195.238V78.0952C0 72.7039 4.67618 68.3333 10.4444 68.3333H41.7777V48.8095C41.7777 21.8528 65.1584 0 94.0001 0ZM146.222 97.6191H125.333V107.381C125.333 112.772 130.009 117.143 135.778 117.143C141.134 117.143 145.549 113.375 146.152 108.519L146.222 107.381V97.6191ZM62.6666 97.6191H41.7777V107.381C41.7777 112.772 46.4539 117.143 52.2222 117.143C57.5785 117.143 61.993 113.375 62.5963 108.519L62.6666 107.381V97.6191ZM94.0001 19.5238C77.313 19.5238 63.6728 31.7156 62.7199 47.0887L62.6666 48.8095V68.3333H125.333V48.8095C125.333 33.2131 112.289 20.4642 95.8415 19.5735L94.0001 19.5238Z" fill="black"/>
</svg>
